<svg width="160" height="160" viewBox="0 0 160 160" fill="none" xmlns="http://www.w3.org/2000/svg">
<path d="M35.7495 119.903C35.6553 119.903 35.5651 119.866 35.4985 119.799C35.4319 119.733 35.3945 119.643 35.3945 119.548V113.585C35.3945 113.491 35.4319 113.401 35.4985 113.334C35.5651 113.268 35.6553 113.23 35.7495 113.23C35.8436 113.23 35.9339 113.268 36.0005 113.334C36.067 113.401 36.1044 113.491 36.1044 113.585V119.548C36.1044 119.643 36.067 119.733 36.0005 119.799C35.9339 119.866 35.8436 119.903 35.7495 119.903Z" fill="#212529"/>
<path d="M51.3313 68.9694C43.0966 71.8977 41.3574 56.2625 48.9709 58.8003C56.5844 61.3382 53.3544 47.6729 53.3544 47.6729C44.6939 18.0886 71.2967 12.445 71.2967 12.445C71.2967 12.445 74.1185 10.7058 78.0229 16.1009C78.0229 16.1009 86.3107 12.5337 92.0785 23.182C97.8463 33.8302 91.2089 50.3705 94.2259 55.2154C97.4914 60.4153 100.615 54.7717 102.549 59.5102C104.182 63.5033 96.2136 68.0288 94.2259 68.0821L51.3313 68.9694Z" fill="#212529"/>
<path d="M49.3265 69.6965C47.2501 69.6965 45.9546 68.4542 45.2802 67.5669C43.5055 65.2065 43.2215 61.5329 44.659 59.5452C45.6174 58.2142 47.1791 57.8237 49.0781 58.4626C50.4978 58.924 51.5982 58.8353 52.3435 58.1432C54.8281 55.8715 53.0712 48.0628 53.0002 47.7611C50.2494 38.302 50.764 30.2803 54.5619 23.9268C59.9748 14.8758 70.3391 12.3025 71.1732 12.1073C71.6168 11.8766 74.4386 10.6875 78.1478 15.6744C79.6932 15.1738 81.3352 15.0461 82.9395 15.3018C85.5838 15.7099 89.3462 17.3782 92.3987 23.004C95.8061 29.3042 94.9365 37.6453 94.2444 44.336C93.7474 49.0389 93.3393 53.103 94.5283 55.0197C96.0901 57.522 97.5631 57.3446 98.9651 57.1671C100.367 56.9896 101.84 56.8299 102.887 59.3855C103.349 60.5213 103.153 61.7636 102.302 63.0769C100.438 65.9341 95.8239 68.401 94.2444 68.4365L51.4029 69.3238C50.7368 69.5642 50.0347 69.6902 49.3265 69.6965ZM47.4098 58.8708C46.9868 58.8534 46.5663 58.9435 46.1877 59.1329C45.809 59.3222 45.4846 59.6045 45.2447 59.9534C44.0024 61.6926 44.2864 65.0468 45.8481 67.1409C46.6112 68.1348 48.3149 69.6788 51.2255 68.6317H51.3319L94.2266 67.7443C95.4689 67.7088 99.8879 65.5082 101.698 62.7219C102.426 61.6038 102.603 60.5923 102.231 59.6694C101.396 57.6285 100.403 57.735 99.0538 57.8947C97.705 58.0544 95.7174 58.2852 93.9249 55.4101C92.5939 53.2982 93.0376 49.1277 93.5345 44.2827C94.2266 37.6808 95.0785 29.4639 91.7775 23.3589C89.4704 19.1174 86.3824 16.5795 82.833 16.0116C80.1709 15.6035 78.1833 16.4376 78.1655 16.4553L77.8993 16.5618L77.7396 16.3311C74.0659 11.2554 71.5104 12.7462 71.4926 12.7639L71.4394 12.7994H71.3861C71.2797 12.8349 60.6137 15.1953 55.1653 24.3173C51.4739 30.4932 50.977 38.3374 53.6923 47.6014C53.781 47.9386 55.6622 56.0845 52.8227 58.6756C51.8821 59.5452 50.5333 59.6872 48.8474 59.137C48.3863 58.9691 47.9005 58.8791 47.4098 58.8708Z" fill="#212529"/>
<path d="M88.3169 32.6768H88.2104C78.5027 29.9083 71.5104 21.5671 71.4394 21.4784C71.3782 21.4055 71.3485 21.3112 71.3568 21.2163C71.3652 21.1215 71.4108 21.0338 71.4838 20.9726C71.5567 20.9114 71.651 20.8817 71.7459 20.89C71.8407 20.8984 71.9284 20.944 71.9896 21.017C72.0606 21.1057 78.9109 29.2871 88.4056 31.9847C88.4514 31.9969 88.4943 32.0183 88.5317 32.0473C88.5691 32.0764 88.6003 32.1127 88.6234 32.1541C88.6466 32.1954 88.6612 32.241 88.6665 32.2881C88.6718 32.3352 88.6675 32.3829 88.6541 32.4283C88.6341 32.5017 88.5899 32.5662 88.5287 32.6113C88.4675 32.6564 88.3929 32.6795 88.3169 32.6768Z" fill="#212529"/>
<path d="M84.3056 43.643H84.2169C84.1702 43.6386 84.1248 43.6249 84.0834 43.6028C84.0421 43.5808 84.0054 43.5507 83.9757 43.5144C83.946 43.4781 83.9238 43.4363 83.9104 43.3913C83.8969 43.3464 83.8925 43.2992 83.8975 43.2526C83.8996 43.2066 83.9111 43.1616 83.9313 43.1203C83.9515 43.079 83.9799 43.0423 84.0148 43.0124C84.0497 42.9825 84.0904 42.96 84.1343 42.9464C84.1782 42.9327 84.2244 42.9282 84.2701 42.9331C84.3944 42.9331 87.3581 43.1106 87.8905 38.2656C88.1922 35.6036 87.4469 34.805 86.737 34.0418C86.0271 33.2787 85.3527 32.5688 85.5479 30.5634C85.5573 30.4693 85.6038 30.3827 85.677 30.3228C85.7502 30.2629 85.8442 30.2345 85.9384 30.244C86.0325 30.2534 86.119 30.2998 86.1789 30.373C86.2388 30.4462 86.2672 30.5403 86.2578 30.6344C86.0981 32.3204 86.6305 32.8883 87.2516 33.5627C87.8728 34.2371 88.9199 35.3551 88.6004 38.3544C88.0325 43.3945 84.8913 43.643 84.3056 43.643Z" fill="#212529"/>
<path d="M80.0463 33.1208H79.9931L75.9645 32.7658C75.8452 32.7524 75.7358 32.693 75.6596 32.6002C75.5833 32.5074 75.5463 32.3886 75.5563 32.2689C75.5606 32.2113 75.5767 32.1551 75.6034 32.1038C75.6302 32.0525 75.6671 32.0073 75.712 31.9707C75.7568 31.9342 75.8086 31.9072 75.8642 31.8913C75.9198 31.8755 75.9781 31.8711 76.0355 31.8785L80.0818 32.2334C80.1401 32.2379 80.197 32.2539 80.2491 32.2804C80.3013 32.307 80.3476 32.3436 80.3856 32.3881C80.4235 32.4326 80.4523 32.4842 80.4702 32.5399C80.4881 32.5956 80.4948 32.6543 80.49 32.7126C80.4739 32.8212 80.4211 32.9209 80.3404 32.9952C80.2596 33.0695 80.1558 33.1138 80.0463 33.1208Z" fill="#212529"/>
<path d="M95.9476 119.548C94.9005 117.72 94.3148 116.975 94.5456 114.881C94.8828 111.668 95.3974 106.539 95.6459 101.712C98.0772 106.539 103.898 114.756 113.712 109.61C115.718 108.563 113.482 76.4936 86.4706 65.8809L83.5069 70.0869C83.0312 70.8346 82.4715 71.5253 81.8386 72.1456C70.587 82.7938 61.607 65.8809 61.607 65.8809C34.0458 74.1332 36.4949 97.0802 33.9748 109.61C32.6615 116.158 40.8962 113.443 48.8291 112.875C52.2543 112.644 52.8754 107.267 52.9287 103.043C52.9263 102.982 52.9484 102.922 52.99 102.877C53.0316 102.833 53.0893 102.806 53.1505 102.804C53.2117 102.801 53.2713 102.823 53.3163 102.865C53.3612 102.907 53.3877 102.964 53.3901 103.025L54.3307 112.502C54.6005 115.271 54.0967 118.06 52.8754 120.56" fill="#ADB5BD"/>
<path d="M61.6074 65.8806C61.6074 65.8806 66.7896 68.4007 69.2742 53.4932L77.0651 52.9785C77.0651 52.9785 77.5443 67.3714 86.4711 65.8806C86.4711 65.8806 75.2194 88.5259 61.6074 65.8806Z" fill="#F8F9FA"/>
<path d="M92.6116 31.8249C92.5233 31.8254 92.438 31.7929 92.3724 31.7338C92.3067 31.6748 92.2655 31.5934 92.2566 31.5055C91.1563 20.875 82.2828 18.1597 82.1941 18.142C82.1048 18.1134 82.0305 18.0508 81.9873 17.9676C81.9441 17.8845 81.9355 17.7877 81.9633 17.6983C81.9736 17.6532 81.9929 17.6106 82.0203 17.5734C82.0476 17.5361 82.0824 17.5048 82.1223 17.4815C82.1623 17.4582 82.2066 17.4433 82.2525 17.4379C82.2984 17.4324 82.345 17.4365 82.3893 17.4498C82.4958 17.4853 84.7851 18.1774 87.252 20.2361C89.7188 22.2948 92.3631 25.6312 92.9665 31.4345C92.9714 31.4812 92.967 31.5283 92.9536 31.5733C92.9402 31.6182 92.9179 31.66 92.8882 31.6964C92.8585 31.7327 92.8219 31.7627 92.7805 31.7848C92.7391 31.8069 92.6938 31.8205 92.6471 31.8249H92.6116Z" fill="#F8F9FA"/>
<path d="M92.7524 39.563C92.6583 39.563 92.568 39.5256 92.5014 39.459C92.4349 39.3925 92.3975 39.3022 92.3975 39.208V34.3276C92.3975 34.2335 92.4349 34.1432 92.5014 34.0766C92.568 34.0101 92.6583 33.9727 92.7524 33.9727C92.8465 33.9727 92.9368 34.0101 93.0034 34.0766C93.07 34.1432 93.1073 34.2335 93.1073 34.3276V39.208C93.1073 39.3022 93.07 39.3925 93.0034 39.459C92.9368 39.5256 92.8465 39.563 92.7524 39.563Z" fill="#F8F9FA"/>
<path d="M55.1995 29.8712H55.1107C55.0208 29.8425 54.9452 29.7807 54.8991 29.6983C54.853 29.616 54.8398 29.5192 54.8623 29.4275C56.6015 23.4468 61.0205 20.1991 61.198 20.0571C61.2363 20.03 61.2797 20.0108 61.3255 20.0007C61.3714 19.9905 61.4187 19.9895 61.465 19.9977C61.5112 20.006 61.5553 20.0233 61.5948 20.0487C61.6342 20.0742 61.6683 20.1072 61.6949 20.1458C61.7229 20.1831 61.7432 20.2255 61.7548 20.2707C61.7663 20.3158 61.7689 20.3628 61.7623 20.409C61.7557 20.4551 61.7401 20.4995 61.7164 20.5396C61.6926 20.5797 61.6612 20.6148 61.6239 20.6427C61.5707 20.6605 57.2049 23.8904 55.5367 29.6228C55.5198 29.6978 55.4764 29.7643 55.4145 29.81C55.3525 29.8556 55.2762 29.8774 55.1995 29.8712Z" fill="#F8F9FA"/>
<path d="M54.3844 35.7461C54.3022 35.7445 54.2229 35.7158 54.1587 35.6645C54.0945 35.6131 54.0491 35.542 54.0295 35.4621C53.7988 34.4757 53.7988 33.4493 54.0295 32.4628C54.04 32.4174 54.0593 32.3744 54.0864 32.3364C54.1134 32.2985 54.1477 32.2662 54.1873 32.2415C54.2268 32.2167 54.2709 32.2 54.3169 32.1924C54.3629 32.1847 54.41 32.1861 54.4554 32.1966C54.5021 32.2047 54.5466 32.2226 54.5859 32.2491C54.6252 32.2755 54.6585 32.31 54.6837 32.3501C54.7088 32.3903 54.7251 32.4354 54.7317 32.4823C54.7382 32.5293 54.7348 32.577 54.7216 32.6226C54.5266 33.5052 54.5266 34.4197 54.7216 35.3024C54.7348 35.3479 54.7382 35.3957 54.7317 35.4426C54.7251 35.4896 54.7088 35.5346 54.6837 35.5748C54.6585 35.615 54.6252 35.6494 54.5859 35.6759C54.5466 35.7023 54.5021 35.7202 54.4554 35.7283L54.3844 35.7461Z" fill="#F8F9FA"/>
<path d="M123.81 86.2539C128.815 120.772 115.15 123.079 106.613 116.459C102.443 113.229 99.5677 108.296 98.8224 106.503C98.7884 106.428 98.7707 106.347 98.7705 106.264C98.7703 106.182 98.7875 106.1 98.821 106.025C98.8545 105.949 98.9036 105.882 98.965 105.827C99.0264 105.771 99.0987 105.73 99.1773 105.705C100.917 105.119 105.974 103.238 107.873 100.594" fill="#F8F9FA"/>
<path d="M114.245 119.778C111.707 119.778 108.974 118.749 106.383 116.743C101.964 113.301 99.1245 108.172 98.4857 106.645C98.3935 106.398 98.3999 106.125 98.5034 105.882C98.5564 105.764 98.6324 105.658 98.7268 105.57C98.8213 105.481 98.9323 105.413 99.0536 105.368C100.598 104.853 105.726 102.972 107.572 100.381C107.629 100.305 107.713 100.256 107.806 100.242C107.899 100.229 107.994 100.253 108.069 100.31C108.108 100.336 108.141 100.37 108.166 100.41C108.192 100.449 108.209 100.493 108.217 100.54C108.225 100.586 108.224 100.633 108.214 100.679C108.204 100.725 108.185 100.768 108.158 100.807C106.241 103.486 101.307 105.368 99.2843 106.042C99.2243 106.075 99.175 106.124 99.1423 106.184C99.1245 106.242 99.1245 106.304 99.1423 106.361C99.9232 108.225 102.834 113.088 106.827 116.176C110.82 119.264 114.973 119.885 118.185 118.021C121.397 116.158 126.792 109.272 123.456 86.2895C123.448 86.2438 123.45 86.1971 123.462 86.1522C123.473 86.1073 123.493 86.0653 123.522 86.0287C123.55 85.992 123.586 85.9616 123.626 85.9393C123.667 85.917 123.711 85.9033 123.757 85.8991C123.804 85.8915 123.852 85.8934 123.898 85.9046C123.944 85.9157 123.987 85.9359 124.025 85.964C124.063 85.9921 124.095 86.0276 124.119 86.0682C124.143 86.1089 124.159 86.1539 124.166 86.2008C125.514 95.5357 125.603 103.131 124.396 108.757C123.349 113.655 121.379 116.974 118.54 118.642C117.23 119.386 115.751 119.777 114.245 119.778Z" fill="#212529"/>
<path d="M137.547 119.424H22.4746V120.134H137.547V119.424Z" fill="#212529"/>
<path d="M123.171 87.372C123.171 87.372 128.904 75.1443 123.171 74.7539C123.171 74.7539 125.07 68.9328 119.906 69.6782C119.906 69.6782 119.853 61.4436 111.742 63.4845C111.742 63.4845 110.926 67.9922 106.862 65.3834C106.862 65.3834 103.241 59.8818 102.407 65.1172C102.248 66.0755 106.88 69.8557 107.696 71.3642C109.861 75.3927 111.37 83.095 110.855 91.1344C110.642 94.5773 110.358 98.9431 110.429 102.599L123.171 87.372Z" fill="#F8F9FA"/>
<path d="M112.896 63.0227C115.789 61.7627 114.334 68.8082 111.299 71.0976C111.141 71.2166 110.959 71.299 110.766 71.3389C110.572 71.3788 110.373 71.3752 110.181 71.3283C109.453 71.1331 108.246 69.7488 109.009 67.6192" fill="#F8F9FA"/>
<path d="M110.5 71.7199C110.363 71.7209 110.225 71.703 110.092 71.6666C109.613 71.5424 109.098 71.081 108.779 70.4776C108.459 69.8742 108.282 68.5786 108.672 67.5138C108.68 67.4618 108.699 67.412 108.727 67.3682C108.756 67.3243 108.795 67.2873 108.839 67.26C108.884 67.2327 108.935 67.2157 108.987 67.2103C109.039 67.2048 109.092 67.211 109.142 67.2284C109.191 67.2458 109.236 67.274 109.274 67.311C109.311 67.3479 109.34 67.3927 109.358 67.4421C109.375 67.4914 109.382 67.5442 109.377 67.5965C109.372 67.6488 109.356 67.6994 109.329 67.7445C108.939 68.8626 109.152 69.679 109.4 70.1581C109.649 70.6373 110.021 70.9213 110.27 70.9745C110.409 71.0097 110.555 71.0136 110.696 70.986C110.837 70.9583 110.97 70.8999 111.086 70.8148C113.358 69.0933 114.635 64.692 113.908 63.4675C113.837 63.361 113.677 63.0771 113.038 63.3433C112.957 63.3634 112.872 63.3544 112.797 63.3178C112.722 63.2812 112.662 63.2193 112.628 63.143C112.594 63.0667 112.588 62.9809 112.611 62.9007C112.634 62.8205 112.685 62.751 112.754 62.7044C113.855 62.2252 114.369 62.8286 114.529 63.1126C115.47 64.7275 113.979 69.5192 111.512 71.3827C111.221 71.6039 110.866 71.7225 110.5 71.7199Z" fill="#212529"/>
<path d="M117.049 66.3781C121.308 64.8341 117.688 74.595 113.748 75.6598C113.748 75.6598 111.76 75.8728 111.814 73.5656" fill="#F8F9FA"/>
<path d="M113.623 76.0139C113.077 76.0292 112.545 75.8392 112.132 75.4815C111.671 75.0556 111.44 74.3989 111.458 73.5648C111.458 73.4707 111.495 73.3804 111.562 73.3138C111.629 73.2473 111.719 73.2099 111.813 73.2099H111.831C111.923 73.2187 112.009 73.2619 112.072 73.3308C112.134 73.3998 112.168 73.4896 112.168 73.5826C112.15 74.2037 112.31 74.6651 112.612 74.9491C112.909 75.1984 113.289 75.3253 113.676 75.304C115.735 74.7184 117.829 71.4707 118.45 68.8796C118.699 67.8325 118.646 67.0161 118.308 66.7144C117.971 66.4127 117.527 66.5725 117.155 66.7144C117.065 66.745 116.967 66.7389 116.883 66.6973C116.798 66.6557 116.733 66.582 116.702 66.4926C116.672 66.4032 116.678 66.3053 116.719 66.2204C116.761 66.1355 116.835 66.0707 116.924 66.0401C117.723 65.7561 118.344 65.8093 118.788 66.182C119.231 66.5547 119.462 67.6728 119.142 69.0393C118.557 71.5239 116.392 75.304 113.836 75.9962H113.623V76.0139Z" fill="#212529"/>
<path d="M121.006 70.5492C125.034 69.7683 122.248 79.334 116.232 79.7777C116.232 79.7777 113.57 79.8664 113.871 77.4351" fill="#F8F9FA"/>
<path d="M116.215 80.1311C115.949 80.1311 114.742 80.0779 114.032 79.297C113.589 78.8178 113.429 78.179 113.518 77.3981C113.522 77.3514 113.536 77.306 113.558 77.2646C113.58 77.2232 113.61 77.1866 113.646 77.1569C113.683 77.1272 113.724 77.105 113.769 77.0916C113.814 77.0781 113.861 77.0737 113.908 77.0786C114.002 77.0958 114.087 77.1468 114.145 77.2221C114.204 77.2973 114.233 77.3915 114.228 77.4868C114.157 78.0547 114.263 78.4984 114.547 78.8178C115.115 79.439 116.215 79.4212 116.215 79.4212C119.073 79.2083 121.096 76.7947 121.965 74.7893C122.622 73.263 122.728 71.8255 122.232 71.1866C121.983 70.8849 121.593 70.7962 121.06 70.9027C120.969 70.9182 120.874 70.8972 120.798 70.8441C120.722 70.791 120.669 70.7101 120.652 70.6187C120.636 70.5249 120.657 70.4285 120.709 70.3493C120.762 70.2701 120.843 70.2141 120.936 70.1928C121.93 69.9976 122.498 70.388 122.782 70.7429C123.474 71.5948 123.403 73.263 122.622 75.0732C121.628 77.3626 119.427 79.9004 116.251 80.1311H116.215Z" fill="#212529"/>
<path d="M111.228 64.94L102.212 52.9785L98.5742 56.7409L108.761 67.3891C108.846 67.4727 108.951 67.533 109.066 67.5641C109.181 67.5952 109.302 67.5961 109.418 67.5666C109.897 67.4246 110.731 66.9987 111.317 65.5967C111.36 65.4888 111.374 65.3717 111.358 65.2567C111.343 65.1417 111.298 65.0326 111.228 64.94Z" fill="#F8F9FA"/>
<path d="M109.24 67.9387C109.103 67.9394 108.967 67.9114 108.842 67.8563C108.717 67.8013 108.604 67.7205 108.512 67.6192L98.0947 56.7403L102.248 52.4277L111.512 64.7265C111.62 64.8654 111.69 65.0302 111.714 65.2045C111.739 65.3788 111.718 65.5566 111.653 65.7203C110.997 67.2998 110.021 67.7612 109.506 67.9032C109.421 67.9323 109.33 67.9443 109.24 67.9387ZM99.0708 56.7403L109.027 67.1401C109.064 67.1756 109.109 67.202 109.159 67.2174C109.208 67.2328 109.26 67.2367 109.311 67.2288C109.719 67.1223 110.447 66.7496 110.997 65.4541C111.016 65.4036 111.021 65.349 111.011 65.296C111.002 65.2429 110.979 65.1933 110.944 65.1524L102.177 53.5103L99.0708 56.7403Z" fill="#212529"/>
<path d="M59.1409 35.0892C57.242 36.3137 56.6386 37.0413 56.887 39.2952C57.0468 40.6085 58.0761 42.8979 59.1409 43.6787C60.2057 44.4596 60.9866 44.4419 61.4125 44.85C62.4241 45.8261 62.4774 46.8732 62.6016 47.938C62.921 50.6001 65.3879 52.2683 67.695 53.6526C71.3686 55.8532 76.4975 55.2498 79.5678 52.2683C81.307 50.5823 82.8155 48.5237 83.4544 46.1811C84.2353 43.2883 87.1458 41.0699 87.2168 40.9634C87.9976 39.5969 88.3526 38.5143 88.1751 36.9348C87.9444 34.8762 85.0339 33.1015 83.3657 31.8769C79.4968 29.0019 76.533 25.9849 72.9126 22.4177C72.7788 22.2886 72.6187 22.1899 72.4433 22.1281C72.2678 22.0664 72.0812 22.0432 71.896 22.06C71.7107 22.0768 71.5313 22.1334 71.3699 22.2257C71.2085 22.3181 71.0688 22.4441 70.9605 22.5952C68.3871 26.1269 68.1387 29.0019 61.4125 32.9063" fill="#F8F9FA"/>
<path d="M72.5395 55.2509H72.433C66.7539 55.1976 63.9676 51.7547 62.6188 48.8797C61.7204 46.9042 61.1911 44.781 61.0571 42.6149C61.0547 42.5692 61.0616 42.5234 61.0775 42.4804C61.0934 42.4375 61.1178 42.3982 61.1494 42.365C61.1809 42.3317 61.2189 42.3053 61.261 42.2873C61.3031 42.2692 61.3485 42.2599 61.3943 42.26H61.412C61.4578 42.2576 61.5036 42.2645 61.5465 42.2804C61.5895 42.2963 61.6288 42.3207 61.662 42.3523C61.6953 42.3838 61.7217 42.4218 61.7397 42.4639C61.7578 42.506 61.7671 42.5514 61.767 42.5972C61.9085 44.6706 62.4194 46.702 63.2755 48.5957C65.1034 52.5001 68.1914 54.5055 72.433 54.541H72.5572C77.065 54.541 80.3482 52.1984 82.3004 47.5664C83.7734 44.0525 83.8798 40.4853 83.8976 40.4498C83.8872 40.3976 83.8886 40.3436 83.9019 40.292C83.9151 40.2405 83.9398 40.1925 83.9741 40.1517C84.0084 40.111 84.0515 40.0785 84.1 40.0566C84.1486 40.0348 84.2015 40.0241 84.2548 40.0255C84.308 40.0269 84.3603 40.0402 84.4077 40.0645C84.4551 40.0888 84.4964 40.1235 84.5286 40.166C84.5607 40.2084 84.5829 40.2576 84.5935 40.3098C84.6041 40.362 84.6028 40.4159 84.5897 40.4675C84.4654 43.0029 83.9134 45.499 82.957 47.8503C80.9161 52.6953 77.3134 55.2509 72.5395 55.2509Z" fill="#212529"/>
<path d="M61.1809 44.8514C60.2295 44.8477 59.3061 44.5295 58.5544 43.9463C57.454 43.059 56.7796 41.6392 56.5667 39.7225C56.2295 36.6878 57.1168 36.0134 57.9155 35.41C58.7141 34.8066 58.9803 34.5936 58.8206 32.9432C58.8152 32.8499 58.845 32.758 58.9042 32.6857C58.9633 32.6134 59.0475 32.5659 59.14 32.5527C59.1867 32.5478 59.2338 32.5522 59.2788 32.5657C59.3237 32.5791 59.3655 32.6013 59.4018 32.631C59.4382 32.6607 59.4682 32.6973 59.4903 32.7387C59.5124 32.7801 59.526 32.8255 59.5304 32.8722C59.7257 34.9131 58.9803 35.481 58.3414 35.9779C57.7025 36.4748 56.9926 37.0072 57.2766 39.6338C57.809 44.4788 61.2342 44.1593 61.3761 44.1416C61.4218 44.1341 61.4685 44.136 61.5134 44.1474C61.5583 44.1587 61.6004 44.1792 61.637 44.2075C61.6736 44.2358 61.704 44.2713 61.7263 44.3119C61.7486 44.3525 61.7623 44.3972 61.7666 44.4433C61.7715 44.4899 61.7671 44.5371 61.7536 44.582C61.7402 44.627 61.718 44.6688 61.6883 44.7051C61.6586 44.7414 61.622 44.7715 61.5806 44.7935C61.5392 44.8156 61.4938 44.8293 61.4471 44.8337L61.1809 44.8514Z" fill="#212529"/>
<path d="M66.3453 39.4191C66.7766 39.4191 67.1262 38.8868 67.1262 38.2301C67.1262 37.5734 66.7766 37.041 66.3453 37.041C65.9141 37.041 65.5645 37.5734 65.5645 38.2301C65.5645 38.8868 65.9141 39.4191 66.3453 39.4191Z" fill="#212529"/>
<path d="M64.376 35.8344C64.2785 35.8304 64.1847 35.7957 64.1081 35.7351C64.0316 35.6745 63.9763 35.5912 63.9501 35.4972C63.9341 35.4401 63.9297 35.3803 63.9371 35.3215C63.9446 35.2627 63.9638 35.2059 63.9936 35.1546C64.0234 35.1033 64.0631 35.0585 64.1105 35.0229C64.1579 34.9872 64.212 34.9614 64.2695 34.947L68.1916 33.9177C68.2464 33.9016 68.3038 33.8967 68.3605 33.9032C68.4172 33.9097 68.4721 33.9276 68.5217 33.9558C68.5714 33.9839 68.6149 34.0217 68.6496 34.067C68.6844 34.1123 68.7097 34.1641 68.724 34.2194C68.757 34.3323 68.7437 34.4538 68.6871 34.5569C68.6305 34.6601 68.5353 34.7366 68.4223 34.7695L64.5002 35.8166L64.376 35.8344Z" fill="#212529"/>
<path d="M70.7824 44.8513H70.7647C69.9838 44.7803 69.4869 44.5141 69.3094 44.0349C68.919 43.0234 70.25 41.5858 70.534 41.3196C70.598 41.2522 70.6859 41.2125 70.7788 41.2092C70.8717 41.2059 70.9622 41.2392 71.0309 41.3019C71.0971 41.3712 71.134 41.4634 71.134 41.5592C71.134 41.6551 71.0971 41.7472 71.0309 41.8166C70.5162 42.349 69.8063 43.3606 69.9838 43.7865C70.1613 44.2124 70.534 44.1237 70.8002 44.1414C70.8476 44.1412 70.8946 44.1509 70.938 44.17C70.9814 44.1891 71.0203 44.2172 71.0521 44.2524C71.0839 44.2876 71.108 44.3291 71.1226 44.3742C71.1373 44.4193 71.1424 44.4669 71.1374 44.5141C71.1289 44.6037 71.0883 44.6872 71.023 44.7492C70.9578 44.8111 70.8723 44.8474 70.7824 44.8513Z" fill="#212529"/>
<path d="M91.99 58.6577C102.174 58.6577 110.429 50.4022 110.429 40.2185C110.429 30.0348 102.174 21.7793 91.99 21.7793C81.8063 21.7793 73.5508 30.0348 73.5508 40.2185C73.5508 50.4022 81.8063 58.6577 91.99 58.6577Z" fill="#F8F9FA"/>
<path d="M91.9895 59.0299C81.6252 59.0299 73.1953 50.5823 73.1953 40.218C73.1953 35.2335 75.1754 30.4531 78.7 26.9285C82.2246 23.4039 87.0049 21.4238 91.9895 21.4238C96.974 21.4238 101.754 23.4039 105.279 26.9285C108.804 30.4531 110.784 35.2335 110.784 40.218C110.784 50.5823 102.354 59.0299 91.9895 59.0299ZM91.9895 22.1337C87.1947 22.1384 82.5976 24.0452 79.2071 27.4357C75.8167 30.8261 73.9099 35.4232 73.9052 40.218C73.9052 50.1918 82.0156 58.32 91.9895 58.32C101.963 58.32 110.074 50.1918 110.074 40.218C110.069 35.4232 108.162 30.8261 104.772 27.4357C101.381 24.0452 96.7843 22.1384 91.9895 22.1337Z" fill="#212529"/>
<path d="M91.9897 55.4814C100.233 55.4814 106.915 48.7992 106.915 40.5561C106.915 32.3131 100.233 25.6309 91.9897 25.6309C83.7467 25.6309 77.0645 32.3131 77.0645 40.5561C77.0645 48.7992 83.7467 55.4814 91.9897 55.4814Z" fill="#F8F9FA"/>
<path d="M91.9902 55.8358C88.9681 55.8358 86.0138 54.9397 83.501 53.2607C80.9881 51.5817 79.0296 49.1952 77.8731 46.4031C76.7166 43.611 76.414 40.5387 77.0036 37.5746C77.5932 34.6105 79.0485 31.8878 81.1854 29.7509C83.3224 27.6139 86.0451 26.1586 89.0092 25.569C91.9732 24.9794 95.0456 25.282 97.8377 26.4385C100.63 27.5951 103.016 29.5536 104.695 32.0664C106.374 34.5792 107.27 37.5335 107.27 40.5556C107.266 44.6068 105.654 48.4906 102.79 51.3552C99.9252 54.2198 96.0413 55.8312 91.9902 55.8358ZM91.9902 25.9853C89.1085 25.9853 86.2914 26.8398 83.8953 28.4408C81.4993 30.0418 79.6317 32.3174 78.529 34.9798C77.4262 37.6422 77.1376 40.5718 77.6998 43.3982C78.262 46.2245 79.6497 48.8207 81.6874 50.8584C83.7251 52.8961 86.3213 54.2838 89.1477 54.846C91.974 55.4082 94.9036 55.1197 97.566 54.0169C100.228 52.9141 102.504 51.0466 104.105 48.6505C105.706 46.2544 106.561 43.4374 106.561 40.5556C106.556 36.6928 105.019 32.9895 102.288 30.258C99.5563 27.5266 95.8531 25.99 91.9902 25.9853Z" fill="#212529"/>
<path d="M80.5248 39.4561C81.3971 39.4561 82.1043 38.3755 82.1043 37.0425C82.1043 35.7095 81.3971 34.6289 80.5248 34.6289C79.6525 34.6289 78.9453 35.7095 78.9453 37.0425C78.9453 38.3755 79.6525 39.4561 80.5248 39.4561Z" fill="#212529"/>
<path d="M85.1396 53.8313C85.1396 53.8313 95.4329 41.9408 88.6358 26.0039L85.1396 53.8313Z" fill="#F8F9FA"/>
<path d="M85.1393 54.1854C85.0545 54.1829 84.9731 54.1516 84.9086 54.0966C84.8386 54.0351 84.7956 53.9484 84.789 53.8555C84.7823 53.7625 84.8125 53.6706 84.8731 53.5997C84.8908 53.5642 87.4286 50.6005 89.1146 45.7378C90.6586 41.2833 91.7767 34.2554 88.316 26.145C88.2798 26.0601 88.2781 25.9645 88.3112 25.8783C88.3443 25.7922 88.4097 25.7223 88.4935 25.6836C88.5364 25.6629 88.5831 25.6511 88.6308 25.6488C88.6784 25.6466 88.726 25.654 88.7707 25.6705C88.8155 25.6871 88.8564 25.7125 88.8911 25.7452C88.9258 25.778 88.9535 25.8174 88.9726 25.8611C92.522 34.2022 91.3685 41.4252 89.7713 46.004C88.0498 50.9732 85.512 53.9369 85.4055 54.0612C85.3718 54.0988 85.3309 54.1292 85.2851 54.1506C85.2394 54.172 85.1897 54.1838 85.1393 54.1854Z" fill="#212529"/>
<path d="M48.8281 112.875C48.8281 112.875 49.0943 118.288 48.8281 119.779V112.875Z" fill="#F8F9FA"/>
<path d="M48.83 120.133H48.7768C48.684 120.111 48.6029 120.055 48.5501 119.976C48.4973 119.897 48.4768 119.801 48.4928 119.707C48.7413 118.269 48.4928 112.945 48.4751 112.892C48.4727 112.846 48.4796 112.8 48.4955 112.757C48.5113 112.715 48.5358 112.675 48.5673 112.642C48.5989 112.609 48.6369 112.582 48.679 112.564C48.7211 112.546 48.7665 112.537 48.8123 112.537C48.8594 112.532 48.9071 112.537 48.9522 112.552C48.9973 112.566 49.0388 112.59 49.074 112.622C49.1092 112.654 49.1372 112.693 49.1564 112.736C49.1755 112.78 49.1852 112.827 49.185 112.874C49.2027 113.087 49.4512 118.323 49.185 119.831C49.1721 119.916 49.1291 119.993 49.0639 120.048C48.9987 120.104 48.9156 120.134 48.83 120.133Z" fill="#212529"/>
<path d="M69.5218 51.4531C68.8296 51.4531 68.2617 50.7609 68.2617 49.9268C68.2617 49.0927 68.8296 48.3828 69.5218 48.3828C70.2139 48.3828 70.7818 49.0749 70.7818 49.9268C70.7818 50.7787 70.2139 51.4531 69.5218 51.4531ZM69.5218 49.0927C69.2201 49.0927 68.9716 49.4831 68.9716 49.9268C68.9716 50.3705 69.2201 50.7432 69.5218 50.7432C69.8235 50.7432 70.0719 50.3705 70.0719 49.9268C70.0719 49.4831 69.8235 49.0927 69.5218 49.0927Z" fill="#212529"/>
<path d="M118.362 83.966C118.077 83.96 117.792 83.9363 117.51 83.895C115.966 83.6643 114.99 83.2384 114.599 82.635C114.522 82.5257 114.469 82.4009 114.444 82.2691C114.42 82.1373 114.424 82.0018 114.457 81.8719L115.132 82.0671C115.131 82.1095 115.138 82.1518 115.153 82.1914C115.168 82.231 115.191 82.2672 115.221 82.2978C115.398 82.5463 115.93 82.9722 117.599 83.2029L118.344 83.2561C121.485 83.2561 123.934 80.3989 124.538 78.7839C124.685 78.3908 124.714 77.9635 124.623 77.5539C124.532 77.1443 124.323 76.7701 124.023 76.4768C123.988 76.4464 123.959 76.409 123.938 76.3669C123.918 76.3248 123.907 76.2789 123.905 76.2322C123.903 76.1855 123.911 76.1389 123.929 76.0955C123.946 76.052 123.972 76.0127 124.005 75.9799C124.067 75.9099 124.154 75.8669 124.247 75.8603C124.34 75.8536 124.431 75.8838 124.502 75.9444C124.556 75.9976 125.887 77.2221 125.194 79.0323C124.502 80.8425 121.876 83.966 118.362 83.966Z" fill="#212529"/>
<path d="M123.42 86.6622C123.278 86.6686 123.138 86.638 123.012 86.5735C122.97 86.5528 122.932 86.5238 122.901 86.4884C122.87 86.453 122.847 86.4119 122.832 86.3673C122.817 86.3227 122.811 86.2756 122.814 86.2288C122.818 86.1819 122.831 86.1362 122.852 86.0943C122.872 86.0519 122.901 86.0142 122.937 85.9837C122.973 85.9532 123.015 85.9305 123.06 85.9171C123.105 85.9038 123.153 85.9 123.199 85.906C123.246 85.9121 123.291 85.9279 123.331 85.9524C123.508 85.9692 123.685 85.9386 123.846 85.8636C124.644 85.5264 125.567 84.6923 125.656 84.4261C125.675 84.3757 125.68 84.3211 125.671 84.268C125.661 84.2149 125.638 84.1654 125.603 84.1244L123.473 81.0187C123.446 80.9817 123.428 80.9398 123.418 80.8953C123.408 80.8509 123.407 80.8049 123.415 80.7601C123.423 80.7154 123.441 80.6727 123.466 80.6348C123.491 80.5969 123.524 80.5645 123.562 80.5395C123.6 80.5124 123.644 80.4933 123.689 80.4831C123.735 80.4729 123.783 80.4719 123.829 80.4801C123.875 80.4884 123.919 80.5057 123.959 80.5312C123.998 80.5566 124.032 80.5896 124.059 80.6282L126.188 83.7162C126.281 83.8524 126.342 84.0076 126.366 84.1704C126.391 84.3332 126.379 84.4994 126.33 84.6568C126.135 85.207 124.999 86.1653 124.112 86.5203C123.893 86.613 123.658 86.6613 123.42 86.6622Z" fill="#212529"/>
<path d="M123.172 86.6102C123.117 86.6089 123.063 86.5955 123.014 86.571C122.965 86.5464 122.922 86.5113 122.888 86.4682L120.705 83.2915C120.678 83.253 120.659 83.2097 120.649 83.1639C120.639 83.1181 120.638 83.0708 120.646 83.0247C120.654 82.9785 120.672 82.9344 120.697 82.895C120.722 82.8555 120.755 82.8214 120.793 82.7946C120.832 82.7678 120.875 82.7488 120.921 82.7388C120.967 82.7287 121.014 82.7278 121.06 82.736C121.106 82.7443 121.151 82.7615 121.19 82.7868C121.229 82.8121 121.264 82.8449 121.29 82.8833L123.473 86.06C123.499 86.0995 123.518 86.1438 123.526 86.1903C123.535 86.2368 123.535 86.2846 123.525 86.3309C123.515 86.3772 123.496 86.4211 123.469 86.4599C123.441 86.4987 123.407 86.5317 123.367 86.557C123.308 86.5933 123.24 86.6118 123.172 86.6102Z" fill="#212529"/>
<path d="M92.0961 128.421C96.3695 128.421 99.8338 124.996 99.8338 120.772C99.8338 116.548 96.3695 113.123 92.0961 113.123C87.8227 113.123 84.3584 116.548 84.3584 120.772C84.3584 124.996 87.8227 128.421 92.0961 128.421Z" fill="#F8F9FA"/>
<path d="M92.1849 128.776H91.617L88.3516 128.385L90.9781 128.066V127.977L91.2798 128.013C93.041 127.791 94.6601 126.932 95.8308 125.598C97.0015 124.264 97.6428 122.547 97.6333 120.772C97.6333 116.974 95.1487 114.01 91.5993 113.584L88.6888 113.247L91.5993 112.892L91.7412 112.839C91.8775 112.789 92.022 112.765 92.1672 112.768C93.2977 112.765 94.4158 113.002 95.4481 113.463C96.4804 113.924 97.4033 114.598 98.1561 115.442C98.909 116.285 99.4746 117.278 99.8158 118.356C100.157 119.434 100.266 120.572 100.136 121.695C99.9019 123.642 98.9647 125.436 97.5004 126.74C96.0362 128.044 94.1457 128.768 92.1849 128.776ZM94.7582 113.957C96.9589 115.323 98.3432 117.808 98.3432 120.772C98.3458 122.191 97.9728 123.585 97.2621 124.813C96.5514 126.041 95.5283 127.059 94.2968 127.764C95.1804 127.486 96.0048 127.047 96.7282 126.469C97.4783 125.878 98.1031 125.144 98.5663 124.309C99.0294 123.474 99.3216 122.555 99.4257 121.606C99.5469 120.582 99.4481 119.544 99.1359 118.562C98.8238 117.58 98.3054 116.675 97.6155 115.909C96.829 115.044 95.8503 114.375 94.7582 113.957Z" fill="#212529"/>
<path d="M91.7239 128.742H91.2979C87.2694 128.742 84.0039 125.157 84.0039 120.773C84.0039 116.39 87.2161 112.77 91.1737 112.77C91.4644 112.77 91.7548 112.787 92.0433 112.823C95.6282 113.32 98.3435 116.727 98.3435 120.773C98.3435 124.82 95.6282 128.245 92.0433 128.724L91.7239 128.742ZM91.1737 113.479C87.6066 113.479 84.7138 116.763 84.7138 120.773C84.7138 124.784 87.6775 128.032 91.2979 128.032H91.5642C91.6886 128.043 91.814 128.037 91.9368 128.014C95.1846 127.588 97.6337 124.465 97.6337 120.773C97.6337 117.082 95.1846 113.976 91.9368 113.533C91.684 113.497 91.429 113.479 91.1737 113.479Z" fill="#212529"/>
<path d="M91.1732 126.647C88.2627 126.647 85.9023 124.02 85.9023 120.773C85.9023 117.525 88.2627 114.916 91.1732 114.916L91.8121 114.952C94.4387 115.306 96.4264 117.809 96.4264 120.773C96.4264 123.736 94.4387 126.239 91.8121 126.594C91.601 126.629 91.3873 126.647 91.1732 126.647ZM91.1732 115.626C88.6531 115.626 86.6122 117.933 86.6122 120.773C86.6122 123.612 88.6531 125.937 91.1732 125.937L91.7056 125.901C93.995 125.582 95.7165 123.381 95.7165 120.773C95.7165 118.164 93.995 115.963 91.7056 115.661C91.5298 115.632 91.3514 115.62 91.1732 115.626Z" fill="#212529"/>
<path d="M98.5928 117.171H96.9956C96.9014 117.171 96.8111 117.133 96.7446 117.067C96.678 117 96.6406 116.91 96.6406 116.816C96.6406 116.722 96.678 116.631 96.7446 116.565C96.8111 116.498 96.9014 116.461 96.9956 116.461H98.5928C98.6869 116.461 98.7772 116.498 98.8438 116.565C98.9103 116.631 98.9477 116.722 98.9477 116.816C98.9477 116.91 98.9103 117 98.8438 117.067C98.7772 117.133 98.6869 117.171 98.5928 117.171Z" fill="#212529"/>
<path d="M99.2131 118.979H97.7046C97.6104 118.979 97.5201 118.942 97.4536 118.875C97.387 118.809 97.3496 118.719 97.3496 118.624C97.3496 118.53 97.387 118.44 97.4536 118.373C97.5201 118.307 97.6104 118.27 97.7046 118.27H99.2131C99.3072 118.27 99.3975 118.307 99.464 118.373C99.5306 118.44 99.568 118.53 99.568 118.624C99.568 118.719 99.5306 118.809 99.464 118.875C99.3975 118.942 99.3072 118.979 99.2131 118.979Z" fill="#212529"/>
<path d="M99.8167 121.429H97.9887C97.8946 121.429 97.8043 121.391 97.7378 121.325C97.6712 121.258 97.6338 121.168 97.6338 121.074C97.6338 120.98 97.6712 120.889 97.7378 120.823C97.8043 120.756 97.8946 120.719 97.9887 120.719H99.8167C99.9108 120.719 100.001 120.756 100.068 120.823C100.134 120.889 100.172 120.98 100.172 121.074C100.172 121.168 100.134 121.258 100.068 121.325C100.001 121.391 99.9108 121.429 99.8167 121.429Z" fill="#212529"/>
<path d="M99.1066 123.985H97.4917C97.3975 123.985 97.3072 123.948 97.2407 123.881C97.1741 123.815 97.1367 123.724 97.1367 123.63C97.1367 123.536 97.1741 123.446 97.2407 123.379C97.3072 123.313 97.3975 123.275 97.4917 123.275H99.1066C99.2008 123.275 99.2911 123.313 99.3576 123.379C99.4242 123.446 99.4616 123.536 99.4616 123.63C99.4616 123.724 99.4242 123.815 99.3576 123.881C99.2911 123.948 99.2008 123.985 99.1066 123.985Z" fill="#212529"/>
<path d="M97.4919 126.612H95.9301C95.836 126.612 95.7457 126.575 95.6791 126.508C95.6126 126.442 95.5752 126.351 95.5752 126.257C95.5752 126.163 95.6126 126.073 95.6791 126.006C95.7457 125.94 95.836 125.902 95.9301 125.902H97.4919C97.586 125.902 97.6763 125.94 97.7429 126.006C97.8094 126.073 97.8468 126.163 97.8468 126.257C97.8468 126.351 97.8094 126.442 97.7429 126.508C97.6763 126.575 97.586 126.612 97.4919 126.612Z" fill="#212529"/>
<path d="M91.7414 124.375C91.2024 124.384 90.6745 124.223 90.2329 123.914C89.381 123.275 88.9551 121.997 88.9551 120.134C88.9728 118.536 89.3455 117.614 90.0909 117.294C91.2444 116.797 92.7175 118.128 92.8772 118.27C92.9446 118.334 92.9843 118.422 92.9876 118.515C92.9909 118.608 92.9576 118.699 92.8949 118.767C92.8646 118.803 92.8272 118.832 92.7851 118.852C92.743 118.872 92.6971 118.884 92.6504 118.885C92.6036 118.887 92.5571 118.879 92.5136 118.862C92.4702 118.844 92.4308 118.818 92.398 118.785C92.0608 118.483 90.996 117.685 90.3748 117.951C89.7537 118.217 89.6827 118.909 89.665 120.134C89.665 121.766 89.9844 122.849 90.6588 123.328C91.3332 123.807 92.3803 123.63 93.0724 123.417C93.1166 123.4 93.1637 123.393 93.2107 123.396C93.2577 123.399 93.3036 123.412 93.3454 123.434C93.3872 123.456 93.424 123.486 93.4534 123.523C93.4828 123.559 93.5041 123.602 93.5161 123.648C93.5325 123.692 93.5395 123.739 93.5365 123.786C93.5336 123.833 93.5209 123.879 93.4992 123.921C93.4774 123.962 93.4472 123.999 93.4103 124.029C93.3735 124.058 93.3309 124.079 93.2854 124.091C92.7889 124.267 92.2678 124.363 91.7414 124.375Z" fill="#212529"/>
<path d="M63.4349 108.278C63.4349 108.278 47.0011 110.745 47.5336 113.673C48.066 116.601 49.2195 118.518 47.6578 121.748C46.8769 123.363 45.1732 125.439 44.7118 127.8C44.2504 130.16 45.2619 132.946 47.5336 134.827C52.0946 138.607 51.9703 141.553 73.1426 134.827C73.1426 134.827 80.6673 132.911 77.4374 126.664C74.2074 120.417 72.7521 123.31 75.6627 114.897C75.6627 114.897 76.9937 111.419 72.8054 111.987C72.8054 111.987 69.4689 112.129 68.4751 110.549C67.4813 108.97 66.7714 106.574 63.4349 108.278Z" fill="#F8F9FA"/>
<path d="M53.0358 124.446C53.0358 124.446 55.8044 117.755 57.8808 117.169C59.9572 116.584 72.7883 112.892 73.6047 113.815C74.421 114.738 73.2497 120.861 71.5283 121.216C69.8068 121.571 58.005 125.262 58.8214 126.185C59.6377 127.108 71.8655 123.878 73.019 124.57C74.1726 125.262 77.2428 129.078 73.8709 133.106C70.4989 137.135 54.775 139.992 53.3908 138.839C52.0065 137.685 46.221 131.261 46.6824 129.308C47.1438 127.356 46.0967 125.173 48.1909 126.132C50.285 127.09 51.7935 127.126 53.0358 124.446Z" fill="#212529"/>
<path d="M55.5728 139.389C53.4077 139.389 51.3667 139.052 50.2487 137.987C46.0071 133.976 42.6707 130.817 44.9778 125.99C47.1429 121.447 48.332 119.335 48.3497 119.299C48.3717 119.259 48.402 119.223 48.4385 119.194C48.4751 119.165 48.5172 119.144 48.5622 119.133C48.6072 119.121 48.6541 119.119 48.7 119.126C48.7459 119.133 48.7898 119.15 48.8289 119.175C48.911 119.22 48.9719 119.296 48.9985 119.386C49.0251 119.475 49.0152 119.572 48.9709 119.654C48.9531 119.672 47.7818 121.784 45.6167 126.292C43.4516 130.8 46.5573 133.515 50.7456 137.472C52.1654 138.821 56.0165 139.052 61.2874 138.076C68.5814 136.745 76.4434 133.533 77.4372 131.456C78.786 128.705 76.8515 126.15 75.2898 124.109C74.8612 123.57 74.4642 123.007 74.1007 122.423C73.4086 121.234 74.0653 119.087 74.7041 116.992C75.2721 115.182 75.9109 113.106 75.2011 112.609C73.8168 111.615 65.3692 113.496 61.3051 114.401L59.2287 114.845C55.626 115.608 52.3428 121.784 52.3073 121.837C52.2922 121.887 52.2663 121.933 52.2316 121.971C52.1968 122.01 52.1539 122.041 52.1061 122.061C52.0582 122.081 52.0064 122.091 51.9545 122.089C51.9026 122.087 51.8517 122.073 51.8055 122.05C51.7592 122.026 51.7188 121.992 51.687 121.951C51.6552 121.91 51.6328 121.862 51.6215 121.812C51.6101 121.761 51.61 121.708 51.6212 121.658C51.6324 121.607 51.6546 121.559 51.6862 121.518C51.8282 121.252 55.1469 114.987 59.0867 114.153L61.1454 113.709C67.6408 112.254 74.1007 110.941 75.6092 112.023C76.7273 112.822 76.0707 114.951 75.3785 117.205C74.8106 119.051 74.1717 121.145 74.7219 122.068C75.0656 122.63 75.445 123.17 75.8577 123.683C77.4372 125.759 79.6023 128.617 78.0761 131.758C76.8338 134.331 68.2975 137.526 61.4116 138.786C59.8321 139.07 57.6492 139.389 55.5728 139.389Z" fill="#212529"/>
<path d="M49.7518 122.494C49.6817 122.492 49.6133 122.472 49.554 122.434C49.4947 122.397 49.4465 122.344 49.4146 122.281C49.0774 121.429 46.0959 113.993 48.4563 112.378C50.8167 110.763 62.7604 108.208 63.5591 108.527C63.6037 108.543 63.6447 108.568 63.6797 108.6C63.7147 108.632 63.743 108.67 63.7628 108.713C63.7826 108.756 63.7937 108.803 63.7953 108.85C63.7968 108.897 63.7889 108.945 63.772 108.989C63.7313 109.068 63.666 109.131 63.5859 109.17C63.5058 109.208 63.4154 109.219 63.3283 109.202C62.512 109.113 50.9764 111.491 48.8645 112.964C47.4447 113.94 48.8467 119.016 50.0713 121.997C50.0917 122.039 50.1033 122.084 50.1054 122.131C50.1074 122.177 50.0999 122.223 50.0832 122.267C50.0666 122.31 50.0411 122.349 50.0085 122.383C49.976 122.416 49.9369 122.442 49.8938 122.459L49.7518 122.494Z" fill="#212529"/>
<path d="M59.9567 107.942C58.7144 107.942 57.4367 107.64 56.6735 106.646C56.617 106.571 56.5928 106.476 56.6061 106.383C56.6194 106.29 56.6692 106.206 56.7445 106.149C56.7808 106.119 56.8231 106.096 56.8686 106.083C56.9142 106.07 56.9619 106.067 57.0088 106.074C57.0557 106.08 57.1006 106.097 57.1407 106.122C57.1808 106.147 57.2151 106.181 57.2414 106.22C58.7677 108.208 63.2754 106.646 63.3109 106.628C63.3552 106.611 63.4023 106.603 63.4497 106.605C63.497 106.607 63.5435 106.618 63.5865 106.637C63.6295 106.657 63.6681 106.686 63.7 106.721C63.732 106.756 63.7565 106.797 63.7724 106.841C63.8018 106.931 63.7962 107.028 63.7567 107.114C63.7172 107.199 63.6467 107.267 63.5594 107.303C63.4352 107.338 61.7314 107.942 59.9567 107.942Z" fill="#212529"/>
<path d="M57.7032 114.029C57.6176 114.032 57.5336 114.004 57.4667 113.951C57.3999 113.897 57.3547 113.821 57.3396 113.737C57.3244 113.652 57.3403 113.565 57.3843 113.492C57.4283 113.418 57.4975 113.363 57.579 113.337C59.3714 112.68 63.6662 111.189 64.5713 111.668H64.6246C64.9085 111.544 65.2635 110.621 65.4409 109.823C65.4621 109.735 65.5162 109.658 65.5921 109.608C65.668 109.559 65.76 109.54 65.8491 109.556C65.9419 109.578 66.023 109.634 66.0758 109.713C66.1286 109.792 66.1491 109.889 66.1331 109.982C66.0621 110.302 65.6716 111.97 64.9263 112.307C64.8185 112.362 64.6988 112.389 64.5779 112.386C64.4571 112.383 64.3389 112.35 64.2341 112.289C63.755 112.077 60.525 113.017 57.8097 114.011L57.7032 114.029Z" fill="#212529"/>
<path d="M50.2129 125.83C51.2322 125.83 52.0586 125.004 52.0586 123.984C52.0586 122.965 51.2322 122.139 50.2129 122.139C49.1935 122.139 48.3672 122.965 48.3672 123.984C48.3672 125.004 49.1935 125.83 50.2129 125.83Z" fill="#212529"/>
<path d="M56.3008 107C57.3201 107 58.1465 106.174 58.1465 105.154C58.1465 104.135 57.3201 103.309 56.3008 103.309C55.2814 103.309 54.4551 104.135 54.4551 105.154C54.4551 106.174 55.2814 107 56.3008 107Z" fill="#212529"/>
<path d="M65.7773 110.125C66.7967 110.125 67.623 109.299 67.623 108.279C67.623 107.26 66.7967 106.434 65.7773 106.434C64.758 106.434 63.9316 107.26 63.9316 108.279C63.9316 109.299 64.758 110.125 65.7773 110.125Z" fill="#212529"/>
<path d="M62.529 142.212L62.1563 141.786C61.856 141.352 61.6448 140.864 61.5351 140.348C61.1269 138.378 62.1563 136 64.3037 134.456C66.4511 132.912 69.4326 132.593 71.154 133.87C71.4532 134.096 71.7164 134.365 71.9349 134.669C72.0501 134.816 72.1456 134.977 72.2189 135.148C73.3014 137.225 72.2899 140.171 69.8053 141.999C67.3207 143.827 64.1794 143.862 62.529 142.212Z" fill="#F8F9FA"/>
<path d="M65.7064 143.754C64.3754 143.754 63.1508 143.328 62.2812 142.459C62.1359 142.313 61.9996 142.159 61.873 141.997C61.5863 141.587 61.3704 141.131 61.2342 140.649C61.2121 140.563 61.2173 140.472 61.2491 140.39C61.2809 140.307 61.3377 140.236 61.4116 140.187C61.4822 140.133 61.5681 140.101 61.6572 140.098C61.7464 140.095 61.8343 140.12 61.9085 140.169C63.559 141.252 66.1323 140.986 68.1733 139.495C70.2142 138.004 71.208 135.821 70.7998 133.94L70.6046 133.035L71.3677 133.585C71.6948 133.83 71.9822 134.123 72.2196 134.455C72.339 134.624 72.4458 134.802 72.539 134.987C73.7103 137.241 72.61 140.382 70.0012 142.281C68.7587 143.209 67.2568 143.724 65.7064 143.754ZM62.1747 141.128C62.2635 141.27 62.3522 141.43 62.4587 141.572C62.5554 141.709 62.6622 141.84 62.7781 141.962C64.3399 143.506 67.2682 143.399 69.593 141.713C71.9179 140.01 72.9117 137.259 71.9179 135.307C71.8292 135.165 71.7582 135.023 71.6517 134.863L71.5984 134.81C71.5807 136.691 70.4626 138.714 68.5992 140.063C66.7357 141.412 64.0382 141.926 62.1747 141.128Z" fill="#212529"/>
<path d="M64.2867 141.555C63.2245 141.58 62.1835 141.256 61.3229 140.633L61.2164 140.544L61.1809 140.42C60.7373 138.272 61.9086 135.752 64.0915 134.155C66.2743 132.558 69.4688 132.185 71.3678 133.587L71.4742 133.676V133.8C71.9357 135.947 70.7644 138.467 68.5815 140.065C67.2504 141.041 65.7064 141.555 64.2867 141.555ZM61.8553 140.136C63.5058 141.271 66.0791 141.023 68.1733 139.497C70.1077 138.095 71.1548 135.93 70.8353 134.084C69.1849 132.948 66.6115 133.214 64.4996 134.74C62.3877 136.267 61.5359 138.29 61.8553 140.136Z" fill="#212529"/>
<path d="M71.297 139.23C71.229 139.229 71.1627 139.208 71.106 139.171C71.0494 139.133 71.0048 139.08 70.9776 139.017L70.2322 137.456C70.1922 137.368 70.1884 137.269 70.2217 137.179C70.255 137.089 70.3226 137.016 70.4097 136.976C70.4968 136.936 70.5962 136.933 70.686 136.966C70.7759 136.999 70.8488 137.067 70.8889 137.154L71.6165 138.716C71.6535 138.803 71.6558 138.901 71.6228 138.99C71.5898 139.079 71.5241 139.153 71.439 139.195L71.297 139.23Z" fill="#212529"/>
<path d="M69.5399 140.739C69.4768 140.736 69.4155 140.716 69.3625 140.682C69.3095 140.648 69.2665 140.6 69.2382 140.543L68.6525 139.496C68.6278 139.455 68.6118 139.409 68.6055 139.361C68.5993 139.313 68.6029 139.264 68.6162 139.217C68.6295 139.171 68.6522 139.127 68.6828 139.09C68.7135 139.052 68.7515 139.022 68.7945 138.999C68.8778 138.96 68.9729 138.952 69.0614 138.978C69.1499 139.004 69.2256 139.063 69.2737 139.141L69.8593 140.206C69.9036 140.289 69.9135 140.385 69.887 140.475C69.8604 140.565 69.7994 140.64 69.7173 140.685C69.6652 140.721 69.6031 140.74 69.5399 140.739Z" fill="#212529"/>
<path d="M66.4337 142.619C66.3671 142.621 66.3013 142.604 66.2444 142.569C66.1876 142.535 66.1423 142.484 66.1143 142.423L65.4576 141.163C65.4153 141.079 65.4083 140.981 65.4382 140.891C65.4682 140.801 65.5326 140.727 65.6174 140.684C65.7021 140.642 65.8002 140.635 65.89 140.665C65.9799 140.695 66.0542 140.759 66.0965 140.844L66.7354 142.104C66.7797 142.186 66.7896 142.283 66.7631 142.373C66.7365 142.463 66.6755 142.538 66.5934 142.583L66.4337 142.619Z" fill="#212529"/>
<path d="M63.5774 140.064C63.2934 140.064 62.7965 139.94 62.619 139.514C62.4415 139.088 62.9207 137.81 64.4647 136.284C66.0087 134.757 67.3042 134.03 68.3336 134.119C68.53 134.127 68.7227 134.175 68.8997 134.26C69.0768 134.346 69.2344 134.467 69.3629 134.615C69.4131 134.694 69.4319 134.789 69.4155 134.881C69.399 134.973 69.3486 135.056 69.2742 135.112C69.2002 135.163 69.1095 135.185 69.0206 135.171C68.9316 135.158 68.851 135.112 68.795 135.041C68.6465 134.901 68.449 134.825 68.2448 134.828C67.7834 134.793 66.7541 135.024 64.9616 136.781C63.1692 138.538 63.2402 139.176 63.2757 139.23C63.3111 139.283 63.5241 139.354 63.5774 139.354H63.5951C63.685 139.358 63.7705 139.394 63.8357 139.456C63.9009 139.518 63.9416 139.602 63.95 139.691C63.9461 139.786 63.908 139.876 63.8427 139.944C63.7774 140.013 63.6894 140.055 63.5951 140.064H63.5774Z" fill="#212529"/>
<path d="M119.977 141.058C119.982 140.791 119.971 140.524 119.941 140.259C119.87 139.51 119.627 138.787 119.231 138.147C117.794 135.698 114.422 134.189 110.695 134.598C106.666 135.024 103.525 137.561 102.939 140.543C102.841 141.064 102.824 141.596 102.886 142.122C102.906 142.387 102.954 142.649 103.028 142.903C103.898 146.116 107.767 148.263 112.132 147.784C116.498 147.305 119.817 144.394 119.977 141.058Z" fill="#F8F9FA"/>
<path d="M110.926 148.209C106.951 148.209 103.526 146.097 102.692 142.991C102.618 142.717 102.565 142.439 102.532 142.157C102.473 141.655 102.485 141.147 102.568 140.648C102.581 140.564 102.621 140.486 102.682 140.425C102.742 140.365 102.82 140.325 102.905 140.311C102.985 140.294 103.069 140.302 103.145 140.334C103.221 140.366 103.286 140.42 103.331 140.489C104.786 142.814 108.034 144.127 111.459 143.754C115.203 143.346 118.256 141.057 118.877 138.182C118.891 138.102 118.929 138.028 118.986 137.971C119.043 137.914 119.117 137.876 119.197 137.862C119.276 137.853 119.356 137.867 119.429 137.901C119.501 137.936 119.562 137.99 119.605 138.057C119.983 138.723 120.218 139.461 120.297 140.222C120.326 140.505 120.338 140.79 120.332 141.074C120.155 144.624 116.659 147.641 112.169 148.138C111.761 148.173 111.335 148.209 110.926 148.209ZM103.206 141.536C103.206 141.713 103.206 141.891 103.224 142.068C103.242 142.246 103.313 142.583 103.366 142.814C104.2 145.902 107.945 147.889 112.098 147.428C116.233 146.984 119.463 144.233 119.622 141.039C119.628 140.79 119.616 140.541 119.587 140.293C119.551 139.899 119.462 139.511 119.321 139.14C118.291 141.926 115.221 144.056 111.53 144.446C108.193 144.819 104.946 143.665 103.206 141.536Z" fill="#212529"/>
<path d="M110.305 144.518C107.004 144.518 104.023 143.081 102.638 140.72L102.567 140.614L102.603 140.472C103.224 137.26 106.543 134.686 110.66 134.243C114.422 133.834 117.99 135.325 119.551 137.969L119.605 138.076V138.218C118.983 141.448 115.665 144.003 111.547 144.447C111.135 144.498 110.72 144.522 110.305 144.518ZM103.331 140.49C104.768 142.814 108.016 144.128 111.459 143.755C115.203 143.347 118.238 141.075 118.859 138.218C117.422 135.875 114.174 134.58 110.731 134.952C106.986 135.361 103.952 137.614 103.331 140.49Z" fill="#212529"/>
<path d="M107.216 147.216C107.131 147.217 107.048 147.187 106.982 147.131C106.917 147.076 106.874 146.999 106.861 146.914L106.506 143.631C106.499 143.585 106.501 143.538 106.512 143.493C106.524 143.449 106.544 143.406 106.572 143.37C106.601 143.333 106.636 143.303 106.677 143.28C106.717 143.258 106.762 143.244 106.808 143.24C106.855 143.235 106.902 143.24 106.947 143.253C106.992 143.267 107.034 143.289 107.07 143.319C107.106 143.348 107.136 143.385 107.158 143.426C107.18 143.468 107.194 143.513 107.199 143.56L107.571 146.825C107.576 146.872 107.572 146.919 107.558 146.964C107.545 147.009 107.523 147.051 107.493 147.087C107.463 147.123 107.427 147.153 107.385 147.175C107.344 147.197 107.298 147.211 107.252 147.216H107.216Z" fill="#212529"/>
<path d="M110.855 147.855C110.766 147.855 110.681 147.823 110.615 147.764C110.55 147.705 110.509 147.623 110.5 147.535L110.092 144.217C110.086 144.121 110.115 144.027 110.174 143.952C110.233 143.877 110.317 143.826 110.411 143.809C110.458 143.804 110.505 143.808 110.55 143.822C110.595 143.835 110.637 143.857 110.673 143.887C110.709 143.917 110.739 143.953 110.761 143.995C110.783 144.036 110.797 144.081 110.801 144.128L111.21 147.464C111.215 147.511 111.21 147.558 111.197 147.603C111.183 147.648 111.161 147.69 111.131 147.726C111.102 147.763 111.065 147.793 111.024 147.815C110.982 147.837 110.937 147.85 110.89 147.855H110.855Z" fill="#212529"/>
<path d="M116.108 146.896C116.025 146.898 115.944 146.87 115.879 146.818C115.814 146.766 115.77 146.693 115.753 146.612L115.061 142.974C115.045 142.88 115.065 142.784 115.118 142.704C115.171 142.625 115.252 142.569 115.345 142.548C115.437 142.532 115.531 142.553 115.607 142.607C115.683 142.66 115.736 142.741 115.753 142.832L116.463 146.488C116.479 146.58 116.458 146.674 116.404 146.75C116.351 146.826 116.27 146.879 116.179 146.896H116.108Z" fill="#212529"/>
<path d="M106.046 139.903C105.958 139.904 105.872 139.871 105.807 139.812C105.741 139.753 105.7 139.672 105.691 139.584C105.673 139.513 105.62 138.874 106.241 138.217C107.217 137.17 109.24 136.691 112.275 136.833C115.31 136.975 116.836 137.454 117.156 138.359C117.369 138.927 116.96 139.477 116.694 139.708C116.622 139.756 116.535 139.777 116.449 139.765C116.363 139.754 116.285 139.711 116.228 139.646C116.171 139.58 116.14 139.496 116.141 139.41C116.142 139.323 116.175 139.24 116.233 139.176C116.233 139.176 116.588 138.856 116.481 138.59C116.375 138.324 115.896 137.685 112.24 137.543C108.584 137.401 107.359 138.075 106.791 138.679C106.223 139.282 106.401 139.495 106.401 139.513C106.406 139.606 106.376 139.698 106.317 139.77C106.258 139.843 106.174 139.89 106.081 139.903H106.046Z" fill="#212529"/>
<path d="M74.7928 80.7006C73.2488 80.7006 72.3969 79.6713 72.0065 78.9614C71.5806 79.4583 70.711 80.0617 69.0605 79.8843C66.7534 79.6181 66.2565 77.5594 66.1677 76.5301C65.5111 76.7963 64.1978 77.2399 63.0975 76.3526C62.2634 75.6782 61.9617 74.6489 62.2634 73.4953C61.3405 73.6018 59.7078 73.3888 58.714 72.3063C57.7201 71.2237 57.6669 70.1944 58.0396 68.6149C57.1522 68.7923 56.1406 68.8101 55.7147 68.2422C55.2888 67.6743 55.5017 67.1951 55.9987 66.3965L56.6021 66.7692C56.1406 67.5146 56.2471 67.763 56.2826 67.8162C56.3181 67.8695 57.0812 68.1179 58.1993 67.8517C58.2847 67.8344 58.373 67.8383 58.4566 67.863C58.5401 67.8878 58.6163 67.9327 58.6785 67.9937C58.7366 68.061 58.7782 68.1411 58.7998 68.2274C58.8214 68.3137 58.8224 68.4039 58.8027 68.4906C58.3945 69.9636 58.5542 71.0817 59.2286 71.8271C59.903 72.5725 61.6777 72.8919 62.2989 72.7854C62.4007 72.7596 62.5077 72.7625 62.6079 72.7938C62.7082 72.8252 62.7978 72.8837 62.8668 72.9629C62.9351 73.0421 62.9824 73.1374 63.0041 73.2398C63.0258 73.3422 63.0213 73.4484 62.991 73.5486C62.7958 74.2052 62.7248 75.128 63.5412 75.8024C64.3575 76.4768 65.4046 76.1041 66.1145 75.7669L66.1855 75.7314C66.256 75.6978 66.3342 75.6833 66.4121 75.6895C66.49 75.6958 66.5649 75.7225 66.6291 75.7669C66.6949 75.8101 66.7498 75.8677 66.7898 75.9354C66.8298 76.0031 66.8538 76.079 66.8599 76.1574C66.8776 76.7963 67.0906 78.9437 69.1315 79.1744C70.7287 79.3518 71.3854 78.6952 71.6338 78.287C71.6778 78.21 71.743 78.1473 71.8217 78.1063C71.9004 78.0654 71.9892 78.0481 72.0775 78.0563C72.1616 78.0572 72.2435 78.0829 72.313 78.1303C72.3825 78.1777 72.4364 78.2446 72.4679 78.3225C72.7164 78.8549 73.4263 80.0795 74.9525 79.9907C76.4788 79.902 76.7982 79.0324 76.9402 78.5C76.9585 78.4175 76.9999 78.342 77.0596 78.2822C77.1194 78.2225 77.1949 78.1811 77.2774 78.1628C77.3628 78.1454 77.4511 78.1493 77.5347 78.1741C77.6182 78.1988 77.6944 78.2437 77.7566 78.3048C78.2712 78.8904 79.6555 80.1505 81.3237 79.1744C82.9919 78.1983 82.6015 77.3642 82.2466 76.672C82.2046 76.5831 82.189 76.4841 82.2016 76.3866C82.2142 76.2891 82.2544 76.1972 82.3176 76.1219C82.3864 76.0544 82.4734 76.0084 82.5679 75.9895C82.6625 75.9706 82.7605 75.9796 82.85 76.0154C83.6663 76.3348 85.5475 76.6365 86.0622 76.0331C86.5768 75.4297 85.8847 73.868 85.6185 73.4421C85.5779 73.3696 85.5537 73.2892 85.5476 73.2064C85.5415 73.1236 85.5536 73.0405 85.583 72.9629C85.6172 72.887 85.6687 72.8201 85.7335 72.7677C85.7982 72.7153 85.8743 72.6788 85.9557 72.6612C86.4704 72.5547 88.1563 72.111 88.742 70.922C89.0614 70.2476 88.9905 69.4135 88.529 68.4551C88.4801 68.3598 88.4591 68.2525 88.4685 68.1458C88.4779 68.039 88.5174 67.937 88.5823 67.8517C88.6499 67.7647 88.7408 67.6986 88.8444 67.6609C88.948 67.6232 89.0602 67.6156 89.1679 67.6388C89.8423 67.763 91.4573 67.976 91.6348 67.0531L92.3269 67.1951C92.1139 68.2422 91.0136 68.6681 89.2744 68.3664C89.7358 69.449 89.7713 70.4073 89.3809 71.2237C88.742 72.5192 87.198 73.0871 86.3639 73.3001C86.7898 74.081 87.4287 75.554 86.6123 76.4946C85.796 77.4352 84.0213 77.098 83.0629 76.8318C83.2936 77.5771 83.3291 78.8372 81.6787 79.7955C80.0282 80.7539 78.218 79.76 77.4904 79.0679C77.2241 79.7068 76.5675 80.6119 74.988 80.7006H74.7928Z" fill="#212529"/>
<path d="M51.0825 61.9587C50.2466 61.9395 49.4266 61.7269 48.6866 61.3376L48.6157 61.3021C48.5424 61.2762 48.4791 61.2281 48.4346 61.1644C48.39 61.1008 48.3665 61.0248 48.3672 60.9472C48.3672 60.853 48.4046 60.7627 48.4712 60.6962C48.5377 60.6296 48.628 60.5922 48.7221 60.5922C48.8303 60.6008 48.9343 60.6375 49.0238 60.6987C51.331 61.8877 53.4606 61.1246 55.1821 58.4803C55.2073 58.4402 55.2403 58.4056 55.2791 58.3785C55.3179 58.3513 55.3618 58.3323 55.4081 58.3223C55.4544 58.3124 55.5022 58.3119 55.5488 58.3207C55.5953 58.3295 55.6396 58.3476 55.679 58.3738C55.7171 58.3988 55.7497 58.4312 55.7749 58.4691C55.8002 58.507 55.8174 58.5497 55.8257 58.5945C55.834 58.6392 55.8332 58.6852 55.8232 58.7297C55.8132 58.7741 55.7944 58.8161 55.7677 58.853C54.4544 60.9117 52.8395 61.9587 51.0825 61.9587Z" fill="#F8F9FA"/>
<path d="M109.329 104.658H109.275C109.183 104.64 109.1 104.589 109.044 104.513C108.988 104.437 108.963 104.343 108.974 104.25C109.027 104.001 112.718 78.3033 107.146 71.2222C107.11 71.1867 104.306 67.6018 102.851 66.5548C101.822 65.8094 101.857 64.3541 102.461 63.4313C103.064 62.5084 103.969 62.2955 104.874 62.8279C104.915 62.8499 104.951 62.8801 104.98 62.9167C105.008 62.9532 105.029 62.9953 105.041 63.0403C105.053 63.0853 105.055 63.1322 105.048 63.1781C105.04 63.224 105.023 63.2679 104.998 63.307C104.95 63.3861 104.873 63.4433 104.784 63.4665C104.694 63.4897 104.599 63.477 104.519 63.4313C103.721 62.9699 103.224 63.5378 103.046 63.804C102.62 64.4784 102.602 65.5077 103.259 65.9691C104.803 67.0872 107.589 70.6366 107.696 70.7786C113.464 78.1081 109.843 103.291 109.684 104.356C109.671 104.441 109.628 104.518 109.563 104.573C109.497 104.629 109.414 104.659 109.329 104.658Z" fill="#212529"/>
</svg>
